<?xml version="1.0" encoding="UTF-8" standalone="no"?>
<!DOCTYPE svg PUBLIC "-//W3C//DTD SVG 1.1//EN"
 "http://www.w3.org/Graphics/SVG/1.1/DTD/svg11.dtd">
<!-- Generated by graphviz version 2.40.1 (20161225.0304)
 -->
<!-- Title: G Pages: 1 -->
<svg width="318pt" height="292pt"
 viewBox="0.00 0.00 318.43 292.00" xmlns="http://www.w3.org/2000/svg" xmlns:xlink="http://www.w3.org/1999/xlink">
<g id="graph0" class="graph" transform="scale(1 1) rotate(0) translate(4 288)">
<title>G</title>
<polygon fill="#ffffff" stroke="transparent" points="-4,4 -4,-288 314.4258,-288 314.4258,4 -4,4"/>
<g id="clust1" class="cluster">
<title>cluster_Global</title>
<path fill="none" stroke="#c0c0c0" d="M20,-8C20,-8 290.4258,-8 290.4258,-8 296.4258,-8 302.4258,-14 302.4258,-20 302.4258,-20 302.4258,-264 302.4258,-264 302.4258,-270 296.4258,-276 290.4258,-276 290.4258,-276 20,-276 20,-276 14,-276 8,-270 8,-264 8,-264 8,-20 8,-20 8,-14 14,-8 20,-8"/>
<text text-anchor="middle" x="155.2129" y="-263.2" font-family="Times,serif" font-size="11.00" fill="#c0c0c0">Global</text>
</g>
<g id="clust2" class="cluster">
<title>cluster_\Spark</title>
<path fill="none" stroke="#c0c0c0" d="M28,-16C28,-16 282.4258,-16 282.4258,-16 288.4258,-16 294.4258,-22 294.4258,-28 294.4258,-28 294.4258,-237 294.4258,-237 294.4258,-243 288.4258,-249 282.4258,-249 282.4258,-249 28,-249 28,-249 22,-249 16,-243 16,-237 16,-237 16,-28 16,-28 16,-22 22,-16 28,-16"/>
<text text-anchor="middle" x="155.2129" y="-236.2" font-family="Times,serif" font-size="11.00" fill="#c0c0c0">Spark</text>
</g>
<!-- \\Spark\\SparkAlarmStatus -->
<g id="node1" class="node">
<title>\\Spark\\SparkAlarmStatus</title>
<polygon fill="none" stroke="#000000" points="286.235,-222 164.9994,-222 164.9994,-186 286.235,-186 286.235,-222"/>
<text text-anchor="middle" x="225.6172" y="-200.7" font-family="Courier,monospace" font-size="11.00" fill="#000000">SparkAlarmStatus</text>
</g>
<!-- \\Spark\\SparkAlarm -->
<g id="node2" class="node">
<title>\\Spark\\SparkAlarm</title>
<polygon fill="none" stroke="#000000" points="266.6279,-168 184.6064,-168 184.6064,-132 266.6279,-132 266.6279,-168"/>
<text text-anchor="middle" x="225.6172" y="-146.7" font-family="Courier,monospace" font-size="11.00" fill="#000000">SparkAlarm</text>
</g>
<!-- \\Spark\\Alarm -->
<g id="node5" class="node">
<title>\\Spark\\Alarm</title>
<polygon fill="none" stroke="#000000" points="85.4043,-168 31.4043,-168 31.4043,-132 85.4043,-132 85.4043,-168"/>
<text text-anchor="middle" x="58.4043" y="-146.7" font-family="Courier,monospace" font-size="11.00" fill="#000000">Alarm</text>
</g>
<!-- \\Spark\\SparkAlarm&#45;&gt;\\Spark\\Alarm -->
<g id="edge1" class="edge">
<title>\\Spark\\SparkAlarm&#45;&gt;\\Spark\\Alarm</title>
<path fill="none" stroke="#000000" stroke-dasharray="1,5" d="M184.2837,-150C157.1684,-150 122.0029,-150 95.7347,-150"/>
<polygon fill="none" stroke="#000000" points="95.4282,-146.5001 85.4282,-150 95.4281,-153.5001 95.4282,-146.5001"/>
</g>
<!-- \\Spark\\Spark -->
<g id="node3" class="node">
<title>\\Spark\\Spark</title>
<polygon fill="none" stroke="#000000" points="252.6172,-114 198.6172,-114 198.6172,-78 252.6172,-78 252.6172,-114"/>
<text text-anchor="middle" x="225.6172" y="-92.7" font-family="Courier,monospace" font-size="11.00" fill="#000000">Spark</text>
</g>
<!-- \\Spark\\SparkNotifier -->
<g id="node4" class="node">
<title>\\Spark\\SparkNotifier</title>
<polygon fill="none" stroke="#000000" points="276.4313,-60 174.8031,-60 174.8031,-24 276.4313,-24 276.4313,-60"/>
<text text-anchor="middle" x="225.6172" y="-38.7" font-family="Courier,monospace" font-size="11.00" fill="#000000">SparkNotifier</text>
</g>
<!-- \\Spark\\Notifier -->
<g id="node6" class="node">
<title>\\Spark\\Notifier</title>
<polygon fill="none" stroke="#000000" points="92.7132,-60 24.0954,-60 24.0954,-24 92.7132,-24 92.7132,-60"/>
<text text-anchor="middle" x="58.4043" y="-38.7" font-family="Courier,monospace" font-size="11.00" fill="#000000">Notifier</text>
</g>
<!-- \\Spark\\SparkNotifier&#45;&gt;\\Spark\\Notifier -->
<g id="edge2" class="edge">
<title>\\Spark\\SparkNotifier&#45;&gt;\\Spark\\Notifier</title>
<path fill="none" stroke="#000000" stroke-dasharray="1,5" d="M174.5392,-42C151.6554,-42 124.9196,-42 102.8729,-42"/>
<polygon fill="none" stroke="#000000" points="102.7849,-38.5001 92.7849,-42 102.7849,-45.5001 102.7849,-38.5001"/>
</g>
</g>
</svg>
